<svg width="1429" height="681" viewBox="0 0 1429 681" fill="none" xmlns="http://www.w3.org/2000/svg">
<path fill-rule="evenodd" clip-rule="evenodd" d="M412.643 42.1453C386.145 56.8009 359.233 71.6852 322.005 79.7347C284.651 87.813 237.285 90.6017 190.494 93.3566H190.494C173.582 94.3523 156.745 95.3436 140.482 96.5786C109.833 98.9062 81.2222 102.099 57.9465 107.807C34.648 113.522 16.8082 121.732 7.57613 134.012C-12.0117 160.067 -15.0393 194.086 2.79295 230.757C20.6348 267.447 59.3633 306.785 123.273 343.34C186.892 379.731 269.089 399.864 355.759 418.003C370.402 421.068 385.172 424.075 400.001 427.095C472.913 441.942 547.243 457.077 614.808 480.692C673.91 501.348 723.72 528.294 772.832 554.863C779.399 558.416 785.954 561.962 792.517 565.486C848.168 595.362 904.414 623.616 973.851 640.603C1049.97 659.231 1128.89 672.325 1199.62 677.518C1270.36 682.712 1332.86 679.999 1376.15 667.045C1397.35 660.704 1409.7 651.277 1416.41 639.897C1423.12 628.508 1424.24 615.079 1422.77 600.63C1421.57 588.733 1418.63 576.2 1415.67 563.597L1415.67 563.596C1415.03 560.886 1414.4 558.172 1413.78 555.462C1410.27 540.17 1407.3 524.962 1407.99 510.975C1408.65 497.83 1412.29 485.248 1416.28 472.824C1416.86 471.023 1417.45 469.226 1418.03 467.431C1421.49 456.822 1424.93 446.287 1426.72 435.507C1428.82 422.919 1428.67 410.024 1423.71 396.363C1418.74 382.697 1408.93 368.226 1391.64 352.512C1356.47 320.555 1301.19 291.481 1238.84 263.4C1207.67 249.363 1174.75 235.58 1141.71 221.812C1139.39 220.844 1137.07 219.877 1134.75 218.909L1134.74 218.907C1104.02 206.109 1073.3 193.311 1043.89 180.322C1007.94 164.441 972.273 146.895 936.562 129.174C933.239 127.525 929.916 125.875 926.592 124.224C894.191 108.133 861.729 92.0113 828.947 76.9625C756.657 43.7773 682.843 15.825 604.8 4.95241C526.671 -5.93278 481.74 7.18671 443.496 25.7875C432.901 30.9411 422.802 36.5264 412.643 42.1453ZM443.059 24.8883C481.473 6.20434 526.604 -6.95176 604.938 3.96198C683.123 14.8543 757.04 42.8528 829.364 76.0537C862.16 91.1089 894.635 107.237 927.033 123.327L927.034 123.327C930.359 124.978 933.683 126.629 937.007 128.279C972.718 146 1008.37 163.536 1044.3 179.407C1073.69 192.391 1104.4 205.185 1135.13 217.983L1135.13 217.984L1135.13 217.986L1135.13 217.987L1135.14 217.988L1135.56 218.166L1135.97 218.334L1136.34 218.491C1138.26 219.29 1140.18 220.09 1142.1 220.889C1175.14 234.656 1208.07 248.445 1239.25 262.488C1301.6 290.57 1357.02 319.698 1392.31 351.772C1409.69 367.564 1419.61 382.165 1424.65 396.021C1429.69 409.882 1429.83 422.958 1427.71 435.671C1425.9 446.532 1422.44 457.148 1418.98 467.752C1418.4 469.545 1417.81 471.337 1417.24 473.13C1413.25 485.549 1409.64 498.022 1408.99 511.025C1408.3 524.858 1411.25 539.944 1414.75 555.238C1415.36 557.922 1416 560.612 1416.63 563.302L1416.64 563.346L1416.64 563.348C1419.6 575.951 1422.56 588.561 1423.77 600.529C1425.24 615.074 1424.14 628.752 1417.27 640.405C1410.4 652.067 1397.79 661.615 1376.44 668.003C1332.97 681.01 1270.33 683.712 1199.55 678.516C1128.76 673.318 1049.78 660.214 973.613 641.574C904.047 624.556 847.708 596.25 792.044 566.367C785.478 562.841 778.921 559.294 772.353 555.741C723.236 529.17 673.499 502.264 614.478 481.636C546.983 458.046 472.734 442.926 399.822 428.079L399.815 428.078L399.812 428.077C384.981 425.057 370.206 422.048 355.554 418.982C268.896 400.845 186.551 380.687 122.776 344.208C58.7675 307.596 19.8549 268.13 1.89364 231.194C-16.0771 194.239 -13.0696 159.81 6.77682 133.411L7.06996 133.632L6.77683 133.411C16.23 120.837 34.3708 112.56 57.7083 106.836C81.0685 101.107 109.749 97.9098 140.407 95.5815C156.715 94.3429 173.583 93.3498 190.513 92.353H190.513L190.513 92.353L190.513 92.3529C237.279 89.5995 284.522 86.8179 321.794 78.7573C358.868 70.7411 385.592 55.9599 412.049 41.327L412.05 41.3268L412.05 41.3264L412.051 41.3262L412.051 41.3258C422.235 35.6932 432.379 30.0826 443.059 24.8883ZM448.999 75.5385C425.429 88.5577 401.482 101.785 368.362 108.938C335.134 116.114 293 118.591 251.381 121.038L251.38 121.038L251.379 121.038L251.379 121.038C236.338 121.922 221.364 122.803 206.903 123.9C179.643 125.967 154.199 128.802 133.502 133.872C112.782 138.947 96.9311 146.237 88.7323 157.128C71.3247 180.252 68.6305 210.446 84.4831 243.002C100.345 275.577 134.781 310.511 191.619 342.976C248.196 375.292 321.296 393.173 398.383 409.285C411.398 412.006 424.527 414.676 437.708 417.356L437.712 417.357C502.569 430.546 568.692 443.993 628.797 464.975C681.374 483.324 725.684 507.262 769.371 530.864L769.371 530.864C775.207 534.017 781.032 537.164 786.864 540.29C836.36 566.827 886.381 591.921 948.129 607.011C1015.83 623.553 1086.03 635.182 1148.94 639.795C1211.86 644.409 1267.44 642 1305.93 630.501C1324.77 624.869 1335.75 616.5 1341.7 606.408C1347.67 596.306 1348.66 584.392 1347.36 571.563C1346.28 561.003 1343.67 549.879 1341.04 538.689L1341.04 538.687L1341.04 538.683C1340.47 536.274 1339.9 533.861 1339.35 531.45C1336.24 517.867 1333.59 504.352 1334.2 491.919C1334.79 480.235 1338.03 469.053 1341.58 458.017C1341.84 457.2 1342.11 456.384 1342.37 455.569L1342.73 454.479L1343.14 453.222L1343.14 453.219L1343.14 453.218L1343.14 453.216L1343.14 453.215C1346.22 443.796 1349.27 434.446 1350.86 424.878C1352.73 413.704 1352.6 402.26 1348.19 390.137C1343.78 378.01 1335.07 365.163 1319.69 351.211C1288.42 322.832 1239.25 297.01 1183.8 272.068C1156.07 259.6 1126.79 247.358 1097.41 235.128C1095.35 234.271 1093.29 233.413 1091.23 232.556C1063.9 221.186 1036.56 209.815 1010.4 198.276C978.424 184.168 946.698 168.583 914.935 152.843C911.977 151.377 909.018 149.909 906.058 148.442C877.242 134.15 848.373 119.832 819.219 106.467C754.923 76.9918 689.277 52.1662 619.871 42.51C550.392 32.8432 510.44 44.4944 476.434 61.0122C467.014 65.5879 458.034 70.548 448.999 75.5385ZM475.997 60.1127C510.174 43.512 550.325 31.8243 620.009 41.5195C689.557 51.1955 755.306 76.0672 819.635 105.558C848.804 118.93 877.688 133.255 906.502 147.546L910.421 149.489C912.074 150.309 913.727 151.128 915.379 151.947C947.143 167.687 978.85 183.263 1010.81 197.361C1036.95 208.895 1064.28 220.262 1091.61 231.632L1091.62 231.635C1093.67 232.492 1095.73 233.349 1097.79 234.205C1127.18 246.434 1156.47 258.681 1184.21 271.156C1239.66 296.099 1288.96 321.975 1320.37 350.47L1320.03 350.841L1320.37 350.47C1335.82 364.501 1344.65 377.477 1349.13 389.796C1353.61 402.118 1353.73 413.743 1351.85 425.043C1350.24 434.693 1347.16 444.125 1344.09 453.543C1343.86 454.234 1343.64 454.926 1343.41 455.617L1343.09 456.604C1342.9 457.177 1342.72 457.75 1342.53 458.324C1338.98 469.354 1335.78 480.427 1335.2 491.969C1334.59 504.248 1337.21 517.641 1340.32 531.226C1340.87 533.623 1341.44 536.027 1342 538.431L1342.01 538.434C1344.64 549.627 1347.27 560.83 1348.35 571.462C1349.66 584.386 1348.68 596.55 1342.57 606.916C1336.44 617.291 1325.22 625.78 1306.21 631.459C1267.55 643.011 1211.82 645.409 1148.86 640.792C1085.89 636.175 1015.64 624.536 947.892 607.982C886.014 592.861 835.9 567.715 786.391 541.172C780.556 538.043 774.73 534.896 768.894 531.743C725.203 508.139 680.964 484.24 628.467 465.919C568.432 444.962 502.39 431.531 437.534 418.341L437.531 418.341L437.527 418.34L437.514 418.337L437.495 418.333C424.32 415.654 411.195 412.985 398.178 410.264C321.103 394.154 247.855 376.249 191.123 343.844C134.186 311.322 99.5658 276.261 83.584 243.44C67.5925 210.599 70.2667 179.995 87.9334 156.526C96.3534 145.341 112.505 137.986 133.264 132.901C154.046 127.81 179.558 124.971 206.827 122.903C221.335 121.802 236.339 120.92 251.398 120.034L251.4 120.034C292.993 117.589 335.005 115.118 368.151 107.96C401.117 100.84 424.877 87.7164 448.406 74.7198C457.467 69.7152 466.493 64.7294 475.997 60.1127ZM416.876 138.789C445.681 132.569 466.513 121.065 487.008 109.748L487.009 109.747L487.01 109.746C494.863 105.41 502.667 101.101 510.851 97.1265C540.405 82.7746 575.127 72.6497 635.521 81.0503C695.855 89.4423 752.923 111.018 808.82 136.637C834.17 148.256 859.273 160.703 884.33 173.127L884.33 173.127L884.333 173.129C886.9 174.402 889.467 175.674 892.033 176.946C919.648 190.627 947.23 204.175 975.034 216.437C997.77 226.463 1021.53 236.343 1045.28 246.222C1047.08 246.971 1048.88 247.721 1050.68 248.471C1076.23 259.1 1101.69 269.741 1125.79 280.578C1174.01 302.258 1216.74 324.699 1243.93 349.358C1257.29 361.481 1264.86 372.638 1268.69 383.167C1272.52 393.69 1272.63 403.625 1271.01 413.329C1269.63 421.642 1266.97 429.766 1264.3 437.955C1264.02 438.826 1263.73 439.698 1263.45 440.571C1263.28 441.088 1263.11 441.605 1262.95 442.123C1259.86 451.715 1257.04 461.442 1256.53 471.606C1255.99 482.423 1258.29 494.179 1261 505.985C1261.48 508.074 1261.97 510.165 1262.46 512.252L1262.47 512.278L1262.47 512.282C1264.75 522.008 1267.03 531.671 1267.96 540.845C1269.09 551.99 1268.22 562.33 1263.05 571.093C1257.88 579.847 1248.36 587.113 1231.98 592.005C1198.53 601.999 1150.22 604.094 1095.52 600.083C1040.83 596.074 979.797 585.965 920.942 571.585C867.265 558.471 823.781 536.663 780.749 513.599C775.679 510.881 770.615 508.147 765.542 505.407C727.559 484.893 689.028 464.083 643.311 448.133C591.054 429.898 533.565 418.209 477.182 406.745L477.181 406.745L477.174 406.743C465.711 404.413 454.293 402.091 442.975 399.726C375.953 385.72 312.408 370.178 263.229 342.095C213.819 313.88 183.891 283.523 170.108 255.224C156.334 226.945 158.678 200.727 173.796 180.651C180.91 171.204 194.672 164.872 212.684 160.461C230.674 156.056 252.791 153.592 276.49 151.795C289.06 150.842 302.077 150.077 315.153 149.308C351.339 147.181 387.981 145.027 416.876 138.789ZM635.658 80.0598C575.06 71.6308 540.139 81.7921 510.414 96.2269C502.145 100.242 494.294 104.578 486.415 108.929C465.961 120.224 445.316 131.625 416.664 137.811C387.852 144.032 351.332 146.179 315.172 148.305L315.168 148.305L315.166 148.305L315.165 148.305C302.074 149.075 289.029 149.841 276.415 150.798C252.706 152.596 230.52 155.064 212.446 159.49C194.395 163.91 180.333 170.308 172.997 180.049C157.62 200.47 155.296 227.098 169.209 255.662C183.112 284.207 213.224 314.691 262.733 342.963C312.066 371.135 375.76 386.701 442.77 400.705C454.103 403.073 465.53 405.396 476.999 407.729L477.002 407.729C533.385 419.193 590.794 430.866 642.981 449.077C688.618 464.999 727.076 485.769 765.063 506.284L765.063 506.285L765.087 506.298C770.153 509.034 775.211 511.765 780.276 514.48C823.322 537.551 866.899 559.411 920.704 572.556C979.606 586.948 1040.69 597.066 1095.44 601.081C1150.19 605.094 1198.64 603.01 1232.27 592.963C1248.8 588.024 1258.58 580.638 1263.91 571.601C1269.24 562.574 1270.09 551.985 1268.95 540.744C1268.01 531.498 1265.72 521.755 1263.43 512.026L1263.43 512.008C1262.94 509.923 1262.45 507.84 1261.97 505.762C1259.27 493.953 1256.99 482.319 1257.53 471.656C1258.03 461.634 1260.81 452.016 1263.9 442.429C1264.01 442.079 1264.12 441.728 1264.24 441.377C1264.4 440.885 1264.56 440.393 1264.72 439.901C1264.89 439.359 1265.07 438.817 1265.25 438.275L1265.25 438.273C1267.92 430.089 1270.6 421.886 1272 413.493C1273.64 403.664 1273.53 393.548 1269.63 382.825C1265.73 372.105 1258.05 360.818 1244.6 348.618C1217.29 323.841 1174.42 301.347 1126.2 279.666C1102.09 268.823 1076.62 258.177 1051.07 247.547C1049.27 246.798 1047.47 246.049 1045.67 245.3L1045.65 245.294C1021.9 235.417 998.159 225.542 975.437 215.522C947.656 203.27 920.092 189.732 892.477 176.05C889.911 174.778 887.343 173.505 884.776 172.232L884.775 172.232C859.719 159.808 834.602 147.354 809.237 135.728C753.306 110.093 696.135 88.4716 635.658 80.0598ZM522.536 142.321C504.895 152.066 486.954 161.978 462.152 167.335C437.28 172.707 405.738 174.562 374.594 176.394C363.342 177.055 352.141 177.714 341.326 178.534C320.93 180.081 301.901 182.203 286.424 185.994C270.926 189.791 259.103 195.237 252.996 203.35C240.005 220.611 237.987 243.156 249.832 267.483C261.686 291.831 287.43 317.957 329.946 342.244C372.259 366.416 426.938 379.795 484.619 391.852C494.363 393.889 504.192 395.888 514.061 397.895C562.583 407.764 612.062 417.827 657.036 433.526C696.386 447.262 729.55 465.182 762.236 482.844L762.237 482.845L762.238 482.845L762.245 482.849L762.251 482.852C766.614 485.21 770.968 487.562 775.327 489.9C812.36 509.758 849.774 528.531 895.959 539.819C946.608 552.196 999.127 560.898 1046.19 564.35C1093.27 567.803 1134.84 565.999 1163.62 557.399C1177.7 553.191 1185.88 546.944 1190.32 539.426C1194.76 531.9 1195.5 523.016 1194.53 513.427C1193.73 505.531 1191.77 497.214 1189.8 488.838C1189.38 487.034 1188.96 485.228 1188.54 483.423C1186.21 473.258 1184.22 463.128 1184.69 453.803C1185.12 445.043 1187.56 436.662 1190.21 428.403C1190.6 427.204 1190.99 426.008 1191.38 424.813L1191.38 424.809C1193.68 417.759 1195.96 410.772 1197.15 403.622C1198.54 395.276 1198.45 386.735 1195.16 377.689C1191.86 368.637 1185.36 359.04 1173.86 348.609C1150.48 327.386 1113.71 308.07 1072.22 289.404C1051.47 280.075 1029.57 270.914 1007.58 261.762L1005.81 261.028L1002.94 259.833L1002.94 259.832L1002.94 259.831C982.493 251.324 962.044 242.816 942.474 234.182C918.542 223.624 894.802 211.96 871.036 200.181C868.824 199.084 866.611 197.987 864.398 196.889L864.396 196.888C842.834 186.193 821.234 175.479 799.422 165.477C751.318 143.422 702.211 124.849 650.294 117.625C598.334 110.395 568.466 119.11 543.044 131.46C536.006 134.879 529.293 138.588 522.536 142.321ZM542.607 130.561C568.2 118.127 598.267 109.376 650.432 116.635C702.491 123.879 751.7 142.497 799.838 164.568C821.665 174.576 843.277 185.296 864.835 195.99L864.84 195.992L864.933 196.038C867.116 197.121 869.298 198.203 871.48 199.285C895.247 211.064 918.969 222.719 942.877 233.267C962.439 241.897 982.879 250.402 1003.33 258.91L1007.96 260.839C1029.95 269.99 1051.87 279.156 1072.63 288.492C1114.12 307.158 1151.02 326.529 1174.54 347.868C1186.11 358.377 1192.73 368.104 1196.1 377.347C1199.46 386.594 1199.55 395.316 1198.14 403.787C1196.93 411.017 1194.63 418.084 1192.33 425.13L1192.33 425.131L1192.32 425.135L1192.29 425.245C1192.15 425.686 1192 426.126 1191.86 426.567C1191.63 427.281 1191.39 427.995 1191.16 428.709C1188.51 436.963 1186.11 445.235 1185.69 453.853C1185.23 463.024 1187.19 473.032 1189.52 483.199C1189.92 484.98 1190.34 486.765 1190.76 488.551L1190.77 488.587L1190.77 488.59C1192.74 496.966 1194.72 505.36 1195.52 513.326C1196.51 523.01 1195.78 532.144 1191.18 539.935C1186.58 547.734 1178.15 554.102 1163.91 558.357C1134.95 567.01 1093.23 568.803 1046.12 565.347C998.991 561.89 946.417 553.179 895.721 540.791C849.408 529.471 811.901 510.647 774.855 490.781C770.496 488.444 766.143 486.092 761.784 483.737L761.772 483.73L761.761 483.724L761.76 483.724C729.069 466.059 695.977 448.179 656.706 434.47C611.803 418.796 562.405 408.749 513.883 398.88C504.009 396.871 494.171 394.871 484.414 392.831C426.745 380.776 371.918 367.373 329.45 343.112C286.834 318.769 260.907 292.514 248.933 267.921C236.95 243.309 238.947 220.354 252.197 202.749C258.525 194.342 270.649 188.829 286.187 185.023C301.747 181.211 320.845 179.085 341.25 177.537C352.112 176.713 363.343 176.053 374.614 175.39H374.614C405.732 173.56 437.151 171.712 461.941 166.357C486.589 161.033 504.343 151.225 521.943 141.502C528.726 137.755 535.485 134.021 542.607 130.561ZM509.05 195.533C529.692 191.074 544.63 182.82 559.307 174.711L559.309 174.71C564.927 171.606 570.506 168.524 576.351 165.684C597.482 155.417 622.308 148.171 665.51 154.183C708.679 160.191 749.516 175.636 789.526 193.982C807.671 202.303 825.64 211.216 843.577 220.115L843.581 220.117L846.485 221.558C847.354 221.988 848.222 222.419 849.09 222.849C868.858 232.648 888.605 242.351 908.51 251.135C924.791 258.318 941.8 265.396 958.806 272.472L962.669 274.08C980.959 281.693 999.18 289.313 1016.43 297.074C1050.95 312.601 1081.52 328.665 1100.95 346.309C1110.5 354.98 1115.91 362.953 1118.64 370.467C1121.37 377.975 1121.45 385.065 1120.3 391.998C1119.3 397.941 1117.41 403.749 1115.5 409.616L1115.46 409.736C1115.15 410.689 1114.83 411.643 1114.53 412.6C1112.32 419.471 1110.29 426.452 1109.93 433.752C1109.54 441.522 1111.2 449.959 1113.13 458.414C1113.48 459.917 1113.83 461.42 1114.18 462.921C1115.82 469.888 1117.44 476.8 1118.11 483.361C1118.92 491.329 1118.3 498.698 1114.62 504.937C1110.94 511.166 1104.16 516.352 1092.46 519.85C1068.54 526.999 1033.98 528.499 994.826 525.628C955.687 522.757 912.007 515.52 869.881 505.226C831.476 495.837 800.363 480.225 769.561 463.708C765.943 461.767 762.328 459.814 758.707 457.857L758.673 457.839C731.486 443.148 703.896 428.239 671.16 416.81C633.742 403.747 592.579 395.374 552.219 387.164L552.201 387.16C544 385.492 535.832 383.831 527.736 382.138C479.758 372.107 434.292 360.98 399.108 340.88C363.753 320.68 342.356 298.957 332.506 278.724C322.666 258.511 324.345 239.792 335.13 225.463C340.19 218.738 349.999 214.213 362.887 211.056C375.752 207.904 391.575 206.139 408.538 204.852C417.529 204.17 426.841 203.623 436.197 203.072H436.197C462.106 201.548 488.354 200.004 509.05 195.533ZM665.647 153.193C622.242 147.152 597.216 154.434 575.914 164.784C569.983 167.666 564.357 170.775 558.714 173.893L558.713 173.893C544.078 181.979 529.327 190.129 508.839 194.555C488.225 199.009 462.099 200.546 436.217 202.069H436.217C426.842 202.62 417.5 203.17 408.463 203.855C391.49 205.143 375.599 206.912 362.649 210.084C349.722 213.252 339.613 217.843 334.331 224.861L334.73 225.162L334.331 224.861C323.287 239.535 321.628 258.664 331.607 279.162C341.576 299.64 363.158 321.491 398.612 341.748C433.95 361.937 479.565 373.089 527.531 383.117C535.646 384.813 543.828 386.478 552.04 388.148L552.041 388.148C592.4 396.358 633.483 404.715 670.83 417.754C703.485 429.154 731.003 444.024 758.194 458.717L758.196 458.718L758.234 458.739C761.854 460.695 765.469 462.648 769.088 464.589C799.903 481.114 831.109 496.777 869.643 506.197C911.816 516.503 955.551 523.749 994.753 526.625C1033.94 529.499 1068.65 528.009 1092.74 520.808C1104.6 517.264 1111.63 511.956 1115.48 505.445C1119.31 498.943 1119.92 491.324 1119.1 483.261C1118.43 476.628 1116.79 469.638 1115.15 462.669C1114.8 461.174 1114.45 459.68 1114.11 458.191C1112.17 449.733 1110.55 441.418 1110.93 433.802C1111.28 426.644 1113.27 419.772 1115.48 412.906C1115.8 411.917 1116.12 410.928 1116.44 409.938L1116.44 409.934C1118.36 404.072 1120.28 398.185 1121.28 392.162C1122.46 385.104 1122.38 377.834 1119.58 370.125C1116.78 362.42 1111.26 354.318 1101.63 345.569C1082.06 327.808 1051.36 311.69 1016.84 296.162C999.576 288.395 981.342 280.769 963.053 273.157L959.195 271.551C942.186 264.474 925.185 257.399 908.914 250.22C889.031 241.446 869.302 231.752 849.534 221.953C847.699 221.043 845.863 220.133 844.026 219.222C826.089 210.323 808.105 201.401 789.943 193.073C749.899 174.712 708.959 159.22 665.647 153.193Z" fill="url(#paint0_linear_2_28)"/>
<defs>
<linearGradient id="paint0_linear_2_28" x1="709.506" y1="0.000218096" x2="709.506" y2="681" gradientUnits="userSpaceOnUse">
<stop stop-color="#E1E1E1"/>
<stop offset="1" stop-color="#E1E1E1" stop-opacity="0"/>
</linearGradient>
</defs>
</svg>
