<svg width="21" height="21" viewBox="0 0 21 21" fill="none" xmlns="http://www.w3.org/2000/svg">
<path d="M10.4997 0.645752C10.8794 0.645752 11.1872 0.953556 11.1872 1.33325V2.24992C11.1872 2.62961 10.8794 2.93742 10.4997 2.93742C10.12 2.93742 9.81217 2.62961 9.81217 2.24992V1.33325C9.81217 0.953556 10.12 0.645752 10.4997 0.645752Z" fill="white"/>
<path d="M10.4997 5.22909C7.58867 5.22909 5.22884 7.58892 5.22884 10.4999C5.22884 13.4109 7.58867 15.7708 10.4997 15.7708C13.4107 15.7708 15.7705 13.4109 15.7705 10.4999C15.7705 7.58892 13.4107 5.22909 10.4997 5.22909Z" fill="white"/>
<path d="M4.50401 3.53199C4.23553 3.26351 3.80022 3.26351 3.53174 3.53199C3.26325 3.80048 3.26325 4.23578 3.53174 4.50426L4.17992 5.15244C4.44841 5.42093 4.88371 5.42093 5.15219 5.15244C5.42068 4.88396 5.42068 4.44866 5.15219 4.18017L4.50401 3.53199Z" fill="white"/>
<path d="M20.3538 10.4999C20.3538 10.8796 20.046 11.1874 19.6663 11.1874H18.7497C18.37 11.1874 18.0622 10.8796 18.0622 10.4999C18.0622 10.1202 18.37 9.81242 18.7497 9.81242H19.6663C20.046 9.81242 20.3538 10.1202 20.3538 10.4999Z" fill="white"/>
<path d="M17.4676 4.50425C17.7361 4.23577 17.7361 3.80047 17.4676 3.53198C17.1991 3.2635 16.7638 3.2635 16.4953 3.53198L15.8471 4.18016C15.5787 4.44865 15.5787 4.88395 15.8471 5.15244C16.1156 5.42092 16.5509 5.42092 16.8194 5.15244L17.4676 4.50425Z" fill="white"/>
<path d="M10.4997 18.0624C10.8794 18.0624 11.1872 18.3702 11.1872 18.7499V19.6666C11.1872 20.0463 10.8794 20.3541 10.4997 20.3541C10.12 20.3541 9.81217 20.0463 9.81217 19.6666V18.7499C9.81217 18.3702 10.12 18.0624 10.4997 18.0624Z" fill="white"/>
<path d="M16.8195 15.8474C16.551 15.5789 16.1157 15.5789 15.8472 15.8474C15.5787 16.1159 15.5787 16.5512 15.8472 16.8197L16.4954 17.4679C16.7639 17.7363 17.1992 17.7363 17.4677 17.4679C17.7361 17.1994 17.7361 16.7641 17.4677 16.4956L16.8195 15.8474Z" fill="white"/>
<path d="M2.93717 10.4999C2.93717 10.8796 2.62937 11.1874 2.24967 11.1874H1.33301C0.953312 11.1874 0.645508 10.8796 0.645508 10.4999C0.645508 10.1202 0.953312 9.81242 1.33301 9.81242H2.24967C2.62937 9.81242 2.93717 10.1202 2.93717 10.4999Z" fill="white"/>
<path d="M5.15213 16.8197C5.42062 16.5512 5.42062 16.1159 5.15213 15.8474C4.88365 15.5789 4.44834 15.5789 4.17986 15.8474L3.53168 16.4956C3.26319 16.7641 3.26319 17.1994 3.53168 17.4679C3.80016 17.7363 4.23546 17.7363 4.50395 17.4679L5.15213 16.8197Z" fill="white"/>
</svg>
