<svg width="136" height="36" viewBox="0 0 136 36" fill="none" xmlns="http://www.w3.org/2000/svg">
<path d="M14.4645 3.53553C16.4171 1.58291 19.5829 1.58291 21.5355 3.53553L32.4645 14.4645C34.4171 16.4171 34.4171 19.5829 32.4645 21.5355L21.5355 32.4645C19.5829 34.4171 16.4171 34.4171 14.4645 32.4645L3.53553 21.5355C1.58291 19.5829 1.58291 16.4171 3.53553 14.4645L14.4645 3.53553Z" fill="#D6E5FD"/>
<path d="M18 13.5C18.1989 13.5 18.3897 13.579 18.5303 13.7197C18.671 13.8603 18.75 14.0511 18.75 14.25V17.25H20.25C20.4489 17.25 20.6397 17.329 20.7803 17.4697C20.921 17.6103 21 17.8011 21 18C21 18.1989 20.921 18.3897 20.7803 18.5303C20.6397 18.671 20.4489 18.75 20.25 18.75H18C17.8011 18.75 17.6103 18.671 17.4697 18.5303C17.329 18.3897 17.25 18.1989 17.25 18V14.25C17.25 14.0511 17.329 13.8603 17.4697 13.7197C17.6103 13.579 17.8011 13.5 18 13.5Z" fill="#2D76F9"/>
<path opacity="0.5" d="M10.5 18C10.5 19.4834 10.9399 20.9334 11.764 22.1668C12.5881 23.4001 13.7594 24.3614 15.1299 24.9291C16.5003 25.4968 18.0083 25.6453 19.4632 25.3559C20.918 25.0665 22.2544 24.3522 23.3033 23.3033C24.3522 22.2544 25.0665 20.918 25.3559 19.4632C25.6453 18.0083 25.4968 16.5003 24.9291 15.1299C24.3614 13.7594 23.4001 12.5881 22.1668 11.764C20.9334 10.9399 19.4834 10.5 18 10.5C17.0151 10.5 16.0398 10.694 15.1299 11.0709C14.2199 11.4478 13.3931 12.0003 12.6967 12.6967C11.2902 14.1032 10.5 16.0109 10.5 18ZM17.25 14.25C17.25 14.0511 17.329 13.8603 17.4697 13.7197C17.6103 13.579 17.8011 13.5 18 13.5C18.1989 13.5 18.3897 13.579 18.5303 13.7197C18.671 13.8603 18.75 14.0511 18.75 14.25V17.25H20.25C20.4489 17.25 20.6397 17.329 20.7803 17.4697C20.921 17.6103 21 17.8011 21 18C21 18.1989 20.921 18.3897 20.7803 18.5303C20.6397 18.671 20.4489 18.75 20.25 18.75H18C17.8011 18.75 17.6103 18.671 17.4697 18.5303C17.329 18.3897 17.25 18.1989 17.25 18V14.25Z" fill="#2D76F9"/>
<path d="M48.538 24.144C48.166 24.144 47.878 24.042 47.674 23.838C47.482 23.622 47.386 23.328 47.386 22.956V12.48C47.386 12.096 47.488 11.808 47.692 11.616C47.896 11.412 48.184 11.31 48.556 11.31H52.894C54.286 11.31 55.36 11.646 56.116 12.318C56.872 12.978 57.25 13.908 57.25 15.108C57.25 15.888 57.076 16.56 56.728 17.124C56.392 17.688 55.9 18.12 55.252 18.42C54.604 18.72 53.818 18.87 52.894 18.87L53.056 18.6H53.65C54.142 18.6 54.568 18.72 54.928 18.96C55.3 19.2 55.624 19.578 55.9 20.094L57.25 22.596C57.394 22.848 57.46 23.094 57.448 23.334C57.436 23.574 57.346 23.772 57.178 23.928C57.01 24.072 56.764 24.144 56.44 24.144C56.116 24.144 55.852 24.078 55.648 23.946C55.444 23.802 55.264 23.586 55.108 23.298L53.29 19.95C53.074 19.542 52.816 19.272 52.516 19.14C52.228 18.996 51.856 18.924 51.4 18.924H49.69V22.956C49.69 23.328 49.594 23.622 49.402 23.838C49.21 24.042 48.922 24.144 48.538 24.144ZM49.69 17.214H52.498C53.326 17.214 53.95 17.046 54.37 16.71C54.802 16.362 55.018 15.846 55.018 15.162C55.018 14.49 54.802 13.986 54.37 13.65C53.95 13.302 53.326 13.128 52.498 13.128H49.69V17.214ZM63.6193 24.18C62.6233 24.18 61.7653 23.994 61.0453 23.622C60.3253 23.25 59.7673 22.722 59.3713 22.038C58.9873 21.354 58.7953 20.544 58.7953 19.608C58.7953 18.696 58.9813 17.898 59.3533 17.214C59.7373 16.53 60.2593 15.996 60.9193 15.612C61.5913 15.216 62.3533 15.018 63.2053 15.018C63.8293 15.018 64.3873 15.12 64.8793 15.324C65.3833 15.528 65.8093 15.822 66.1573 16.206C66.5173 16.59 66.7873 17.058 66.9673 17.61C67.1593 18.15 67.2553 18.762 67.2553 19.446C67.2553 19.662 67.1773 19.83 67.0213 19.95C66.8773 20.058 66.6673 20.112 66.3913 20.112H60.6133V18.816H65.6713L65.3833 19.086C65.3833 18.534 65.2993 18.072 65.1313 17.7C64.9753 17.328 64.7413 17.046 64.4293 16.854C64.1293 16.65 63.7513 16.548 63.2953 16.548C62.7913 16.548 62.3593 16.668 61.9993 16.908C61.6513 17.136 61.3813 17.466 61.1893 17.898C61.0093 18.318 60.9193 18.822 60.9193 19.41V19.536C60.9193 20.52 61.1473 21.258 61.6033 21.75C62.0713 22.23 62.7553 22.47 63.6553 22.47C63.9673 22.47 64.3153 22.434 64.6993 22.362C65.0953 22.278 65.4673 22.14 65.8153 21.948C66.0673 21.804 66.2893 21.744 66.4813 21.768C66.6733 21.78 66.8233 21.846 66.9313 21.966C67.0513 22.086 67.1233 22.236 67.1473 22.416C67.1713 22.584 67.1353 22.758 67.0393 22.938C66.9553 23.118 66.8053 23.274 66.5893 23.406C66.1693 23.67 65.6833 23.868 65.1313 24C64.5913 24.12 64.0873 24.18 63.6193 24.18ZM70.1892 24.144C69.8292 24.144 69.5532 24.048 69.3612 23.856C69.1692 23.652 69.0732 23.364 69.0732 22.992V16.188C69.0732 15.816 69.1692 15.534 69.3612 15.342C69.5532 15.15 69.8232 15.054 70.1712 15.054C70.5192 15.054 70.7892 15.15 70.9812 15.342C71.1732 15.534 71.2692 15.816 71.2692 16.188V17.502L71.0712 16.962C71.3112 16.362 71.6832 15.888 72.1872 15.54C72.6912 15.192 73.2912 15.018 73.9872 15.018C74.6952 15.018 75.2772 15.186 75.7332 15.522C76.1892 15.858 76.5072 16.374 76.6872 17.07H76.4352C76.6752 16.434 77.0712 15.936 77.6232 15.576C78.1752 15.204 78.8112 15.018 79.5312 15.018C80.2032 15.018 80.7552 15.15 81.1872 15.414C81.6312 15.678 81.9612 16.08 82.1772 16.62C82.3932 17.148 82.5012 17.82 82.5012 18.636V22.992C82.5012 23.364 82.3992 23.652 82.1952 23.856C82.0032 24.048 81.7272 24.144 81.3672 24.144C81.0072 24.144 80.7312 24.048 80.5392 23.856C80.3472 23.652 80.2512 23.364 80.2512 22.992V18.726C80.2512 18.054 80.1372 17.562 79.9092 17.25C79.6932 16.938 79.3212 16.782 78.7932 16.782C78.2052 16.782 77.7432 16.992 77.4072 17.412C77.0712 17.82 76.9032 18.39 76.9032 19.122V22.992C76.9032 23.364 76.8072 23.652 76.6152 23.856C76.4232 24.048 76.1472 24.144 75.7872 24.144C75.4272 24.144 75.1452 24.048 74.9412 23.856C74.7492 23.652 74.6532 23.364 74.6532 22.992V18.726C74.6532 18.054 74.5392 17.562 74.3112 17.25C74.0952 16.938 73.7292 16.782 73.2132 16.782C72.6252 16.782 72.1632 16.992 71.8272 17.412C71.4912 17.82 71.3232 18.39 71.3232 19.122V22.992C71.3232 23.76 70.9452 24.144 70.1892 24.144ZM85.9383 24.126C85.5783 24.126 85.3023 24.018 85.1103 23.802C84.9183 23.586 84.8223 23.286 84.8223 22.902V16.296C84.8223 15.9 84.9183 15.6 85.1103 15.396C85.3023 15.18 85.5783 15.072 85.9383 15.072C86.2983 15.072 86.5743 15.18 86.7663 15.396C86.9703 15.6 87.0723 15.9 87.0723 16.296V22.902C87.0723 23.286 86.9763 23.586 86.7843 23.802C86.5923 24.018 86.3103 24.126 85.9383 24.126ZM85.9383 13.398C85.5183 13.398 85.1883 13.296 84.9483 13.092C84.7203 12.876 84.6063 12.582 84.6063 12.21C84.6063 11.826 84.7203 11.532 84.9483 11.328C85.1883 11.124 85.5183 11.022 85.9383 11.022C86.3703 11.022 86.7003 11.124 86.9283 11.328C87.1563 11.532 87.2703 11.826 87.2703 12.21C87.2703 12.582 87.1563 12.876 86.9283 13.092C86.7003 13.296 86.3703 13.398 85.9383 13.398ZM90.5262 24.144C90.1662 24.144 89.8902 24.048 89.6982 23.856C89.5062 23.652 89.4102 23.364 89.4102 22.992V16.188C89.4102 15.816 89.5062 15.534 89.6982 15.342C89.8902 15.15 90.1602 15.054 90.5082 15.054C90.8562 15.054 91.1262 15.15 91.3182 15.342C91.5102 15.534 91.6062 15.816 91.6062 16.188V17.412L91.4082 16.962C91.6722 16.326 92.0802 15.846 92.6322 15.522C93.1962 15.186 93.8322 15.018 94.5402 15.018C95.2482 15.018 95.8302 15.15 96.2862 15.414C96.7422 15.678 97.0842 16.08 97.3122 16.62C97.5402 17.148 97.6542 17.82 97.6542 18.636V22.992C97.6542 23.364 97.5582 23.652 97.3662 23.856C97.1742 24.048 96.8982 24.144 96.5382 24.144C96.1782 24.144 95.8962 24.048 95.6922 23.856C95.5002 23.652 95.4042 23.364 95.4042 22.992V18.744C95.4042 18.06 95.2722 17.562 95.0082 17.25C94.7562 16.938 94.3602 16.782 93.8202 16.782C93.1602 16.782 92.6322 16.992 92.2362 17.412C91.8522 17.82 91.6602 18.366 91.6602 19.05V22.992C91.6602 23.76 91.2822 24.144 90.5262 24.144ZM103.324 24.18C102.556 24.18 101.878 23.994 101.29 23.622C100.714 23.25 100.264 22.722 99.9395 22.038C99.6155 21.342 99.4535 20.526 99.4535 19.59C99.4535 18.642 99.6155 17.832 99.9395 17.16C100.264 16.476 100.714 15.948 101.29 15.576C101.878 15.204 102.556 15.018 103.324 15.018C104.056 15.018 104.692 15.198 105.232 15.558C105.784 15.918 106.156 16.392 106.348 16.98H106.15V12.3C106.15 11.928 106.246 11.646 106.438 11.454C106.63 11.262 106.906 11.166 107.266 11.166C107.626 11.166 107.902 11.262 108.094 11.454C108.298 11.646 108.4 11.928 108.4 12.3V22.992C108.4 23.364 108.304 23.652 108.112 23.856C107.92 24.048 107.644 24.144 107.284 24.144C106.924 24.144 106.648 24.048 106.456 23.856C106.264 23.652 106.168 23.364 106.168 22.992V21.588L106.366 22.128C106.186 22.752 105.82 23.25 105.268 23.622C104.716 23.994 104.068 24.18 103.324 24.18ZM103.954 22.47C104.398 22.47 104.788 22.362 105.124 22.146C105.46 21.93 105.718 21.612 105.898 21.192C106.09 20.76 106.186 20.226 106.186 19.59C106.186 18.63 105.982 17.916 105.574 17.448C105.166 16.968 104.626 16.728 103.954 16.728C103.51 16.728 103.12 16.836 102.784 17.052C102.448 17.256 102.184 17.574 101.992 18.006C101.812 18.426 101.722 18.954 101.722 19.59C101.722 20.538 101.926 21.258 102.334 21.75C102.742 22.23 103.282 22.47 103.954 22.47Z" fill="#212121"/>
<path d="M111.885 24.144C111.525 24.144 111.249 24.048 111.057 23.856C110.865 23.652 110.769 23.364 110.769 22.992V16.188C110.769 15.816 110.865 15.534 111.057 15.342C111.249 15.15 111.519 15.054 111.867 15.054C112.215 15.054 112.485 15.15 112.677 15.342C112.869 15.534 112.965 15.816 112.965 16.188V17.502L112.767 16.962C113.007 16.362 113.379 15.888 113.883 15.54C114.387 15.192 114.987 15.018 115.683 15.018C116.391 15.018 116.973 15.186 117.429 15.522C117.885 15.858 118.203 16.374 118.383 17.07H118.131C118.371 16.434 118.767 15.936 119.319 15.576C119.871 15.204 120.507 15.018 121.227 15.018C121.899 15.018 122.451 15.15 122.883 15.414C123.327 15.678 123.657 16.08 123.873 16.62C124.089 17.148 124.197 17.82 124.197 18.636V22.992C124.197 23.364 124.095 23.652 123.891 23.856C123.699 24.048 123.423 24.144 123.063 24.144C122.703 24.144 122.427 24.048 122.235 23.856C122.043 23.652 121.947 23.364 121.947 22.992V18.726C121.947 18.054 121.833 17.562 121.605 17.25C121.389 16.938 121.017 16.782 120.489 16.782C119.901 16.782 119.439 16.992 119.103 17.412C118.767 17.82 118.599 18.39 118.599 19.122V22.992C118.599 23.364 118.503 23.652 118.311 23.856C118.119 24.048 117.843 24.144 117.483 24.144C117.123 24.144 116.841 24.048 116.637 23.856C116.445 23.652 116.349 23.364 116.349 22.992V18.726C116.349 18.054 116.235 17.562 116.007 17.25C115.791 16.938 115.425 16.782 114.909 16.782C114.321 16.782 113.859 16.992 113.523 17.412C113.187 17.82 113.019 18.39 113.019 19.122V22.992C113.019 23.76 112.641 24.144 111.885 24.144ZM130.856 24.18C129.86 24.18 129.002 23.994 128.282 23.622C127.562 23.25 127.004 22.722 126.608 22.038C126.224 21.354 126.032 20.544 126.032 19.608C126.032 18.696 126.218 17.898 126.59 17.214C126.974 16.53 127.496 15.996 128.156 15.612C128.828 15.216 129.59 15.018 130.442 15.018C131.066 15.018 131.624 15.12 132.116 15.324C132.62 15.528 133.046 15.822 133.394 16.206C133.754 16.59 134.024 17.058 134.204 17.61C134.396 18.15 134.492 18.762 134.492 19.446C134.492 19.662 134.414 19.83 134.258 19.95C134.114 20.058 133.904 20.112 133.628 20.112H127.85V18.816H132.908L132.62 19.086C132.62 18.534 132.536 18.072 132.368 17.7C132.212 17.328 131.978 17.046 131.666 16.854C131.366 16.65 130.988 16.548 130.532 16.548C130.028 16.548 129.596 16.668 129.236 16.908C128.888 17.136 128.618 17.466 128.426 17.898C128.246 18.318 128.156 18.822 128.156 19.41V19.536C128.156 20.52 128.384 21.258 128.84 21.75C129.308 22.23 129.992 22.47 130.892 22.47C131.204 22.47 131.552 22.434 131.936 22.362C132.332 22.278 132.704 22.14 133.052 21.948C133.304 21.804 133.526 21.744 133.718 21.768C133.91 21.78 134.06 21.846 134.168 21.966C134.288 22.086 134.36 22.236 134.384 22.416C134.408 22.584 134.372 22.758 134.276 22.938C134.192 23.118 134.042 23.274 133.826 23.406C133.406 23.67 132.92 23.868 132.368 24C131.828 24.12 131.324 24.18 130.856 24.18Z" fill="#2D76F9"/>
</svg>
