<svg width="56" height="56" viewBox="0 0 56 56" fill="none" xmlns="http://www.w3.org/2000/svg">
<path opacity="0.25" d="M28 33.1217C27.5893 33.1217 27.188 33.0144 26.8333 32.8114L5.83331 20.6827C5.47863 20.4779 5.1841 20.1833 4.97933 19.8286C4.77455 19.4739 4.66675 19.0716 4.66675 18.662C4.66675 18.2525 4.77455 17.8501 4.97933 17.4954C5.1841 17.1407 5.47863 16.8462 5.83331 16.6414L26.8333 4.52203C27.5566 4.10903 28.4433 4.10903 29.1666 4.52203L50.1666 16.6414C50.5213 16.8462 50.8159 17.1407 51.0206 17.4954C51.2254 17.8501 51.3332 18.2525 51.3332 18.662C51.3332 19.0716 51.2254 19.4739 51.0206 19.8286C50.8159 20.1833 50.5213 20.4779 50.1666 20.6827L29.1666 32.8114C28.8116 33.0152 28.4093 33.1222 28 33.1217Z" fill="#2D76F9"/>
<path opacity="0.5" d="M50.1666 25.9746L45.584 23.3286L29.1666 32.8113C28.4433 33.2266 27.5566 33.2266 26.8333 32.8113L10.416 23.3286L5.83331 25.9746C5.47863 26.1794 5.1841 26.474 4.97933 26.8287C4.77455 27.1834 4.66675 27.5857 4.66675 27.9953C4.66675 28.4048 4.77455 28.8072 4.97933 29.1619C5.1841 29.5166 5.47863 29.8111 5.83331 30.0159L26.8333 42.1446C27.5566 42.5599 28.4433 42.5599 29.1666 42.1446L50.1666 30.0159C50.5213 29.8111 50.8159 29.5166 51.0206 29.1619C51.2254 28.8072 51.3332 28.4048 51.3332 27.9953C51.3332 27.5857 51.2254 27.1834 51.0206 26.8287C50.8159 26.474 50.5213 26.1794 50.1666 25.9746Z" fill="#2D76F9"/>
<path d="M50.1666 35.308L45.584 32.662L29.1666 42.1447C28.4433 42.56 27.5566 42.56 26.8333 42.1447L10.416 32.662L5.83331 35.308C5.47863 35.5128 5.1841 35.8073 4.97933 36.162C4.77455 36.5167 4.66675 36.9191 4.66675 37.3287C4.66675 37.7382 4.77455 38.1406 4.97933 38.4953C5.1841 38.85 5.47863 39.1445 5.83331 39.3493L26.8333 51.478C27.5566 51.8933 28.4433 51.8933 29.1666 51.478L50.1666 39.3493C50.5213 39.1445 50.8159 38.85 51.0206 38.4953C51.2254 38.1406 51.3332 37.7382 51.3332 37.3287C51.3332 36.9191 51.2254 36.5167 51.0206 36.162C50.8159 35.8073 50.5213 35.5128 50.1666 35.308Z" fill="#2D76F9"/>
</svg>
