<svg width="23" height="16" viewBox="0 0 23 16" fill="none" xmlns="http://www.w3.org/2000/svg">
<path d="M22.4181 2.46783C22.2851 1.9924 22.0316 1.55937 21.6821 1.21066C21.3327 0.861951 20.8991 0.609382 20.4234 0.47741C18.6376 2.28286e-05 11.4589 2.29386e-05 11.4589 2.29386e-05C11.4589 2.29386e-05 4.29385 -0.0114288 2.48951 0.47741C2.01456 0.609962 1.58183 0.862795 1.23315 1.21147C0.884471 1.56015 0.631638 1.99288 0.499086 2.46783C0.159977 4.29595 -0.00704011 6.15182 0.000227301 8.01111C-0.00308155 9.86145 0.163909 11.7082 0.499086 13.5279C0.632067 14.0031 0.884975 14.4362 1.23353 14.7855C1.58209 15.1348 2.01459 15.3886 2.48951 15.5226C4.27524 16 11.4589 16 11.4589 16C11.4589 16 18.6197 16 20.4234 15.5226C20.8991 15.3892 21.3324 15.1356 21.6817 14.7863C22.0311 14.4369 22.2847 14.0036 22.4181 13.5279C22.7466 11.7092 22.9069 9.85982 22.8955 8.01111C22.9069 6.15023 22.7502 4.29794 22.4181 2.46783ZM9.16577 11.4373V4.56991L15.1413 8.01111L9.16577 11.4373Z" fill="#EB5757"/>
</svg>
