<svg width="69" height="47" viewBox="0 0 69 47" fill="none" xmlns="http://www.w3.org/2000/svg">
<path d="M68.664 13.931L66.845 14.2474C63.14 14.8925 59.692 15.8768 56.554 17.0354V7.05325L55.586 7.49096C53.386 8.48357 51.299 9.52078 49.31 10.614L49.243 0.155794L48.19 0.832056C43.067 4.11898 38.369 7.85398 34.174 11.9655C30.133 8.1278 25.579 4.4011 20.5786 0.849689L19.4944 0.0800781V10.92C17.3282 9.69711 15.1073 8.58314 12.8399 7.58742L11.8724 7.16216L11.9179 16.4442C8.59943 15.2991 5.25823 14.5513 1.94693 14.2131L0.317627 14.0472L13.3603 30.4227L13.3025 18.4356C15.5441 19.3142 17.6184 20.3171 19.4955 21.3512V31.7285L19.6307 31.9121C23.4655 37.0982 33.554 45.5338 33.982 45.8906L34.418 46.2547L34.857 45.8927C35.285 45.54 45.381 37.1915 49.218 31.8032L49.444 31.4153L49.383 21.7537C51.146 20.8223 53.085 19.9012 55.181 19.0486V30.4735L68.664 13.931ZM56.554 18.5093C59.223 17.499 62.127 16.6133 65.23 15.9629L56.554 26.6068V18.5093ZM3.46583 15.7918C6.46313 16.2253 9.29633 16.9794 11.923 17.9191L11.9643 26.4616L3.46583 15.7918ZM47.875 2.68141L47.888 11.4137C44.819 13.1832 41.984 15.102 39.318 17.22C38.737 16.579 38.141 15.9391 37.527 15.3001C36.759 14.4994 35.966 13.7039 35.155 12.9114C38.982 9.1619 43.211 5.76296 47.875 2.68141ZM24.7706 22.9672C23.4861 22.097 22.1831 21.2859 20.8677 20.5349V13.3253C23.4169 14.8738 25.8826 16.579 28.2491 18.4315C27.0452 19.895 25.8846 21.4072 24.7706 22.9672ZM29.316 19.2799C30.657 20.368 31.965 21.5037 33.237 22.684C32.008 23.9287 30.81 25.2346 29.634 26.6078C28.5454 25.7086 27.294 24.7377 25.896 23.7462C26.9905 22.2121 28.1293 20.7227 29.316 19.2799ZM38.257 18.0799C36.867 19.2312 35.524 20.4385 34.216 21.7132C32.914 20.5028 31.575 19.339 30.202 18.224C31.478 16.7253 32.807 15.2752 34.189 13.8729C35.621 15.267 36.978 16.6693 38.257 18.0799ZM38.05 27.5621C36.209 29.0463 34.937 30.2464 34.279 30.8957C33.646 30.2298 32.427 29.0027 30.686 27.4977C31.845 26.1452 33.029 24.858 34.24 23.6321C35.552 24.8943 36.822 26.2043 38.05 27.5621ZM29.795 28.5557C32.316 30.7401 33.728 32.328 33.749 32.3519L34.249 32.9193L34.765 32.3664C34.786 32.3436 36.261 30.7764 38.969 28.5962C39.831 29.5836 40.67 30.5949 41.486 31.6279L34.463 38.2982L27.3312 31.6756C28.1438 30.598 28.9636 29.5587 29.795 28.5557ZM35.219 22.6623C36.5 21.4166 37.817 20.2362 39.177 19.1109C40.573 20.7009 41.87 22.2982 43.063 23.8976C42.934 23.9826 42.809 24.0667 42.685 24.1496C41.361 25.0396 40.175 25.9036 39.134 26.7064C37.873 25.3092 36.567 23.9609 35.219 22.6623ZM40.24 18.252C42.635 16.355 45.17 14.6208 47.893 13.0121L47.905 20.982C46.566 21.7143 45.333 22.4465 44.216 23.1529C42.998 21.5182 41.672 19.8836 40.24 18.252ZM20.8677 2.75505C25.4149 6.04923 29.542 9.45647 33.206 12.9291C32.49 13.6551 31.788 14.3905 31.102 15.1383C30.434 15.8685 29.778 16.6143 29.134 17.3715C26.4928 15.3022 23.7308 13.4114 20.8677 11.7155V2.75505ZM15.2766 17.7428C14.6169 17.4607 13.955 17.1931 13.2922 16.942L13.255 9.28637C15.3799 10.2572 17.4614 11.3338 19.4924 12.509V19.7747C18.0975 19.0279 16.6901 18.3485 15.2766 17.7428ZM23.9797 24.0947C22.8955 25.666 21.8568 27.2799 20.8687 28.9343V22.1323C21.989 22.7919 23.0298 23.4537 23.9797 24.0947ZM34.421 44.4593C32.465 42.7997 24.4639 35.9189 21.0029 31.4454C22.2894 29.1677 23.6565 26.9791 25.1051 24.8757C26.4608 25.8382 27.6802 26.7852 28.7437 27.6658C27.769 28.843 26.8087 30.068 25.8578 31.3458L25.4871 31.8437L34.473 40.1891L43.34 31.7679L42.956 31.2732C42.02 30.0669 41.051 28.8897 40.053 27.7436C41.054 26.9719 42.19 26.1452 43.45 25.2989C43.589 25.2045 43.733 25.109 43.877 25.0136C45.385 27.1233 46.711 29.2372 47.846 31.3448C44.401 35.9655 36.382 42.8111 34.421 44.4593ZM47.916 28.676C47.045 27.2104 46.083 25.7407 45.03 24.2689C45.917 23.7099 46.878 23.1342 47.907 22.5565L47.916 28.676ZM49.37 20.203L49.318 12.1885C51.18 11.142 53.128 10.1473 55.179 9.1951V17.5623C53.089 18.39 51.147 19.2882 49.37 20.203Z" fill="#BA8D5B"/>
</svg>
