<svg width="122" height="123" viewBox="0 0 122 123" fill="none" xmlns="http://www.w3.org/2000/svg">
<circle cx="61" cy="61.9988" r="61" fill="white" fill-opacity="0.7"/>
<path d="M67.6145 100.216L61 106.83L54.3855 100.216" stroke="#273029" stroke-opacity="0.3" stroke-width="2" stroke-linecap="round" stroke-linejoin="round"/>
<path d="M67.6145 23.782L61 17.1675L54.3855 23.782" stroke="#273029" stroke-opacity="0.3" stroke-width="2" stroke-linecap="round" stroke-linejoin="round"/>
<path d="M102.892 55.3843L109.506 61.9987L102.892 68.6132" stroke="#273029" stroke-opacity="0.3" stroke-width="2" stroke-linecap="round" stroke-linejoin="round"/>
<path d="M19.1084 55.3843L12.494 61.9987L19.1084 68.6132" stroke="#273029" stroke-opacity="0.3" stroke-width="2" stroke-linecap="round" stroke-linejoin="round"/>
<path d="M44.1941 58.8152H46.1159C46.6081 58.8152 47.0105 58.7292 47.323 58.5574C47.6433 58.3777 47.8816 58.1277 48.0378 57.8074C48.1941 57.4792 48.2722 57.0925 48.2722 56.6472C48.2722 56.3035 48.198 55.9871 48.0495 55.698C47.9089 55.4089 47.6902 55.1785 47.3933 55.0066C47.0964 54.8269 46.7175 54.7371 46.2566 54.7371C45.9441 54.7371 45.6394 54.8035 45.3425 54.9363C45.0456 55.0613 44.7995 55.241 44.6042 55.4753C44.4167 55.7097 44.323 55.9949 44.323 56.3308H40.362C40.362 55.3621 40.6277 54.5339 41.1589 53.8464C41.698 53.1511 42.405 52.6199 43.28 52.2527C44.1628 51.8777 45.112 51.6902 46.1277 51.6902C47.3386 51.6902 48.4011 51.8777 49.3152 52.2527C50.2292 52.6199 50.9402 53.1667 51.448 53.8933C51.9636 54.6121 52.2214 55.5027 52.2214 56.5652C52.2214 57.1511 52.0847 57.7019 51.8112 58.2175C51.5378 58.7332 51.155 59.1863 50.6628 59.5769C50.1706 59.9675 49.5925 60.2761 48.9284 60.5027C48.2722 60.7214 47.5534 60.8308 46.7722 60.8308H44.1941V58.8152ZM44.1941 61.7566V59.7878H46.7722C47.6237 59.7878 48.4011 59.8855 49.1042 60.0808C49.8073 60.2683 50.4128 60.5496 50.9206 60.9246C51.4284 61.2996 51.8191 61.7644 52.0925 62.3191C52.3659 62.866 52.5027 63.4949 52.5027 64.2058C52.5027 65.0027 52.3425 65.7136 52.0222 66.3386C51.7019 66.9636 51.2527 67.491 50.6745 67.9207C50.0964 68.3503 49.4206 68.6785 48.6472 68.905C47.8737 69.1238 47.0339 69.2332 46.1277 69.2332C45.4167 69.2332 44.7058 69.1394 43.9948 68.9519C43.2839 68.7566 42.6355 68.4597 42.0495 68.0613C41.4636 67.655 40.9909 67.1394 40.6316 66.5144C40.28 65.8816 40.1042 65.1277 40.1042 64.2527H44.0652C44.0652 64.6121 44.1628 64.9402 44.3581 65.2371C44.5612 65.5261 44.8308 65.7566 45.1667 65.9285C45.5027 66.1003 45.8659 66.1863 46.2566 66.1863C46.7409 66.1863 47.1511 66.0964 47.487 65.9167C47.8308 65.7292 48.0925 65.4792 48.2722 65.1667C48.4519 64.8542 48.5417 64.5066 48.5417 64.1238C48.5417 63.5457 48.4441 63.0847 48.2487 62.741C48.0612 62.3972 47.7839 62.1472 47.4167 61.991C47.0573 61.8347 46.6237 61.7566 46.1159 61.7566H44.1941ZM63.4128 51.6902H64.0456V54.7957H63.8347C63.0769 54.7957 62.3659 54.9011 61.7019 55.1121C61.0456 55.323 60.4675 55.6433 59.9675 56.073C59.4753 56.4949 59.0886 57.03 58.8073 57.6785C58.5339 58.3269 58.3972 59.0886 58.3972 59.9636V62.9519C58.3972 63.4988 58.4441 63.9753 58.5378 64.3816C58.6316 64.7878 58.7722 65.1238 58.9597 65.3894C59.1472 65.655 59.3777 65.8542 59.6511 65.9871C59.9323 66.1199 60.2566 66.1863 60.6237 66.1863C60.9284 66.1863 61.2097 66.116 61.4675 65.9753C61.7253 65.8347 61.948 65.6355 62.1355 65.3777C62.3308 65.1199 62.4792 64.8191 62.5808 64.4753C62.6823 64.1316 62.7331 63.7566 62.7331 63.3503C62.7331 62.9128 62.6784 62.5183 62.5691 62.1667C62.4597 61.8152 62.3034 61.5183 62.1003 61.2761C61.905 61.0261 61.6667 60.8386 61.3855 60.7136C61.112 60.5808 60.8112 60.5144 60.4831 60.5144C59.9831 60.5144 59.5573 60.6277 59.2058 60.8542C58.862 61.073 58.6003 61.3542 58.4206 61.698C58.2487 62.0417 58.1628 62.3894 58.1628 62.741L57.2136 61.78C57.198 61.3113 57.2878 60.8269 57.4831 60.3269C57.6784 59.8269 57.9714 59.3621 58.362 58.9324C58.7527 58.5027 59.2409 58.155 59.8269 57.8894C60.4128 57.6238 61.0925 57.491 61.8659 57.491C62.6472 57.491 63.3347 57.6394 63.9284 57.9363C64.53 58.2332 65.0339 58.6472 65.4402 59.1785C65.8542 59.7097 66.1667 60.3308 66.3777 61.0417C66.5886 61.7527 66.6941 62.5222 66.6941 63.3503C66.6941 64.1863 66.5456 64.9636 66.2487 65.6824C65.9597 66.3933 65.5495 67.0144 65.0183 67.5457C64.487 68.0769 63.8581 68.491 63.1316 68.7878C62.405 69.0847 61.6042 69.2332 60.7292 69.2332C59.8308 69.2332 58.9987 69.0808 58.2331 68.7761C57.4753 68.4636 56.8112 68.0144 56.2409 67.4285C55.6784 66.8347 55.237 66.1121 54.9167 65.2605C54.6042 64.4089 54.448 63.4441 54.448 62.366V60.9246C54.448 59.4636 54.6862 58.1628 55.1628 57.0222C55.6472 55.8816 56.3034 54.9167 57.1316 54.1277C57.9675 53.3308 58.9245 52.7253 60.0027 52.3113C61.0808 51.8972 62.2175 51.6902 63.4128 51.6902ZM80.2878 58.9089V62.0261C80.2878 63.2527 80.1433 64.3191 79.8542 65.2253C79.573 66.1316 79.1667 66.8816 78.6355 67.4753C78.112 68.0691 77.487 68.5105 76.7605 68.7996C76.0339 69.0886 75.2331 69.2332 74.3581 69.2332C73.655 69.2332 72.9987 69.1433 72.3894 68.9636C71.78 68.7761 71.2292 68.4949 70.737 68.1199C70.2527 67.7371 69.8347 67.2605 69.4831 66.6902C69.1316 66.1199 68.862 65.448 68.6745 64.6746C68.487 63.8933 68.3933 63.0105 68.3933 62.0261V58.9089C68.3933 57.6746 68.5339 56.6082 68.8152 55.7097C69.1042 54.8035 69.5144 54.0535 70.0456 53.4597C70.5769 52.866 71.2058 52.4246 71.9323 52.1355C72.6589 51.8464 73.4597 51.7019 74.3347 51.7019C75.0378 51.7019 75.6902 51.7957 76.2917 51.9832C76.9011 52.1628 77.4519 52.4441 77.9441 52.8269C78.4362 53.2019 78.8542 53.6746 79.198 54.2449C79.5495 54.8152 79.8191 55.491 80.0066 56.2722C80.1941 57.0457 80.2878 57.9246 80.2878 58.9089ZM76.3386 62.5066V58.405C76.3386 57.8582 76.3073 57.3816 76.2448 56.9753C76.1902 56.5691 76.1042 56.2253 75.987 55.9441C75.8777 55.6628 75.7409 55.4363 75.5769 55.2644C75.4128 55.0847 75.2253 54.9558 75.0144 54.8777C74.8112 54.7917 74.5847 54.7488 74.3347 54.7488C74.0222 54.7488 73.7409 54.8152 73.4909 54.948C73.2487 55.073 73.0417 55.2761 72.8698 55.5574C72.698 55.8386 72.5652 56.2136 72.4714 56.6824C72.3855 57.1511 72.3425 57.7253 72.3425 58.405V62.5066C72.3425 63.0613 72.3698 63.5457 72.4245 63.9597C72.487 64.366 72.573 64.7136 72.6823 65.0027C72.7995 65.2839 72.9402 65.5144 73.1042 65.6941C73.2683 65.866 73.4558 65.991 73.6667 66.0691C73.8777 66.1472 74.1081 66.1863 74.3581 66.1863C74.6628 66.1863 74.9362 66.1238 75.1784 65.9988C75.4206 65.8738 75.6277 65.6707 75.7995 65.3894C75.9792 65.1003 76.112 64.7214 76.198 64.2527C76.2917 63.7761 76.3386 63.1941 76.3386 62.5066Z" fill="#273029"/>
</svg>
