<svg width="49" height="69" viewBox="0 0 49 69" fill="none" xmlns="http://www.w3.org/2000/svg">
<path d="M0.348206 32.5974H22.3726L9.88051 53.8835H0.348206V32.5974Z" fill="#2D2D2D"/>
<path d="M48.0967 16.2914C48.0967 17.1728 48.0532 18.0102 47.9226 18.8034V18.8916C47.4003 22.3731 45.7898 25.5022 43.4394 27.882C43.3523 27.9701 43.2653 28.0582 43.1782 28.1464C43.1782 28.1464 43.1782 28.1464 43.1347 28.1905C41.3066 29.8651 39.2173 31.0991 36.8234 31.8042C35.7352 32.1127 34.647 32.3772 33.4283 32.5094C32.6448 32.5975 31.9484 32.6416 31.9484 32.6416H22.3726L0.130574 21.624L0 0.249756H29.8591C30.0768 0.249756 30.2944 0.249756 30.512 0.249756C33.9071 0.293826 36.7798 0.866738 39.1738 1.92443C39.2173 1.92443 39.2173 1.92443 39.2609 1.9685C44.484 4.56866 48.0532 9.98934 48.0967 16.2914Z" fill="#606060"/>
<path d="M5.4843 61.508C5.96309 61.7283 6.35483 62.0368 6.61599 62.4775C6.87715 62.9182 7.00773 63.403 7.00773 63.9759C7.00773 64.5488 6.87715 65.0336 6.61599 65.4743C6.35483 65.915 5.96309 66.2235 5.4843 66.4439C5.00551 66.6642 4.39614 66.7964 3.74324 66.7964H2.21982V68.9118H0.47876V61.1995H3.74324C4.39614 61.1995 5.00551 61.2876 5.4843 61.508ZM4.8314 64.9455C5.09256 64.7251 5.22314 64.3725 5.22314 63.9759C5.22314 63.5352 5.09256 63.2267 4.8314 62.9623C4.57024 62.7419 4.13497 62.6097 3.61266 62.6097H2.17629V65.298H3.61266C4.1785 65.298 4.57024 65.1658 4.8314 64.9455Z" fill="#2D2D2D"/>
<path d="M13.1015 68.8677L11.6216 66.7083H11.5345H10.0111V68.8677H8.27002V61.1995H11.5345C12.1874 61.1995 12.7968 61.3317 13.2756 61.552C13.7544 61.7724 14.1461 62.0809 14.4072 62.5216C14.6684 62.9623 14.799 63.4471 14.799 64.02C14.799 64.5929 14.6684 65.0777 14.4072 65.5184C14.1461 65.915 13.7543 66.2676 13.232 66.4879L14.9296 68.9559L13.1015 68.8677ZM12.6662 62.9623C12.405 62.7419 11.9698 62.6097 11.4474 62.6097H10.0111V65.298H11.4474C11.9698 65.298 12.3615 65.1658 12.6662 64.9455C12.9274 64.7251 13.0579 64.3725 13.0579 63.9759C13.0579 63.5352 12.9274 63.2267 12.6662 62.9623Z" fill="#2D2D2D"/>
<path d="M21.2409 67.2371H17.7153L17.0624 68.8677H15.2343L18.6293 61.1995H20.3704L23.7654 68.8677H21.9373L21.2409 67.2371ZM20.6751 65.8709L19.4563 62.9182L18.2376 65.8709H20.6751Z" fill="#2D2D2D"/>
<path d="M31.1213 65.5624C31.3825 65.8709 31.4695 66.2676 31.4695 66.7524C31.4695 67.4134 31.2084 67.9423 30.6861 68.2948C30.1638 68.6474 29.4238 68.8237 28.4227 68.8237H24.5053V61.1995H28.2051C29.1191 61.1995 29.8591 61.3758 30.3379 61.7283C30.8167 62.0809 31.0778 62.5656 31.0778 63.1826C31.0778 63.5352 30.9907 63.8878 30.8166 64.1963C30.6425 64.5047 30.3814 64.7251 30.0767 64.9014C30.5555 65.0336 30.9037 65.2539 31.1213 65.5624ZM26.2899 62.5216V64.3285H28.031C28.4662 64.3285 28.8144 64.2403 29.0321 64.1081C29.2497 63.9759 29.3803 63.7115 29.3803 63.4471C29.3803 63.1386 29.2497 62.9182 29.0321 62.786C28.8144 62.6538 28.4662 62.5657 28.031 62.5657L26.2899 62.5216ZM29.3803 67.2812C29.5979 67.149 29.7285 66.8846 29.7285 66.5761C29.7285 65.9591 29.2497 65.6065 28.3356 65.6065H26.2899V67.5015H28.3356C28.8144 67.5456 29.1626 67.4575 29.3803 67.2812Z" fill="#2D2D2D"/>
<path d="M34.3859 68.471C33.733 68.1184 33.2542 67.6336 32.906 67.0607C32.5578 66.4437 32.3837 65.7827 32.3837 65.0335C32.3837 64.2843 32.5578 63.6232 32.906 63.0062C33.2542 62.3893 33.7765 61.9485 34.3859 61.596C35.0388 61.2434 35.7352 61.0671 36.5187 61.0671C37.3022 61.0671 37.9986 61.2434 38.6515 61.596C39.3044 61.9485 39.7832 62.4333 40.1314 63.0062C40.4796 63.5792 40.6537 64.2843 40.6537 65.0335C40.6537 65.7827 40.4796 66.4437 40.1314 67.0607C39.7832 67.6777 39.2608 68.1184 38.6515 68.471C38.0421 68.8235 37.3022 68.9998 36.5187 68.9998C35.7352 68.9998 34.9953 68.8235 34.3859 68.471ZM37.7374 67.1929C38.0856 66.9726 38.3903 66.7082 38.608 66.3115C38.8256 65.959 38.9126 65.5183 38.9126 65.0335C38.9126 64.5487 38.8256 64.1521 38.608 63.7554C38.3903 63.4029 38.1292 63.0944 37.7374 62.874C37.3892 62.6537 36.9539 62.5655 36.5187 62.5655C36.0834 62.5655 35.6482 62.6537 35.2999 62.874C34.9517 63.0944 34.647 63.3588 34.4294 63.7554C34.2118 64.108 34.1247 64.5487 34.1247 65.0335C34.1247 65.5183 34.2118 65.9149 34.4294 66.3115C34.647 66.6641 34.9082 66.9726 35.2999 67.1929C35.6482 67.4133 36.0834 67.5014 36.5187 67.5014C36.9539 67.5014 37.3457 67.3692 37.7374 67.1929Z" fill="#2D2D2D"/>
<path d="M43.4394 62.6538H41.0019V61.1995H47.6179V62.6538H45.1804V68.8677H43.4394V62.6538Z" fill="#2D2D2D"/>
<path d="M46.7039 53.8835H22.3726V32.5974H31.9484L46.7039 53.8835Z" fill="#444444"/>
</svg>
