<svg width="868" height="457" viewBox="0 0 868 457" fill="none" xmlns="http://www.w3.org/2000/svg">
<g clip-path="url(#clip0_4_8)">
<path d="M434 865.043C672.587 865.043 866 671.631 866 433.043C866 194.456 672.587 1.04349 434 1.04349C195.413 1.04349 2 194.456 2 433.043C2 671.631 195.413 865.043 434 865.043Z" stroke="#A59B85" stroke-opacity="0.3" stroke-width="2.08696" stroke-dasharray="10.43 10.43"/>
<path d="M433.588 786.828C629.205 786.828 787.784 628.249 787.784 432.632C787.784 237.015 629.205 78.4362 433.588 78.4362C237.971 78.4362 79.3917 237.015 79.3917 432.632C79.3917 628.249 237.971 786.828 433.588 786.828Z" fill="#B7AF9F" fill-opacity="0.1"/>
<path d="M434 713.346C588.806 713.346 714.301 587.851 714.301 433.045C714.301 278.238 588.806 152.743 434 152.743C279.194 152.743 153.699 278.238 153.699 433.045C153.699 587.851 279.194 713.346 434 713.346Z" fill="#D2CDC2" fill-opacity="0.3"/>
</g>
<defs>
<clipPath id="clip0_4_8">
<rect width="866.087" height="504" fill="white" transform="translate(0.956543)"/>
</clipPath>
</defs>
</svg>
