<svg width="92" height="90" viewBox="0 0 92 90" fill="none" xmlns="http://www.w3.org/2000/svg">
<g clip-path="url(#clip0_23_156)">
<path d="M56.2152 43.3151L47.1374 51.9802L8.80302 88.5661C7.79663 89.5289 6.5056 90.0103 5.21457 90.0103C3.80156 90.0103 2.38855 89.4367 1.36182 88.2998C-0.661123 86.0669 -0.396819 82.5743 1.9311 80.6692L47.1374 43.8272L52.1185 39.7712L56.2152 43.3151Z" fill="url(#paint0_linear_23_156)"/>
<path d="M46.7409 52.4206L37.8054 60.9423L36.982 52.185L41.8716 48.2007L46.7409 52.4206Z" fill="#3A81D6" fill-opacity="0.8"/>
<path d="M91.9776 29.9078C91.9776 46.4288 78.6811 59.8259 62.2942 59.8259C51.966 59.8259 42.8678 54.5101 37.5512 46.4391C34.4304 41.7071 32.6107 36.0225 32.6107 29.9078C32.6107 13.3868 45.9073 0 62.2942 0C69.6947 0 76.4548 2.72448 81.6494 7.23114C87.9724 12.7211 91.9776 20.8433 91.9776 29.9078Z" fill="url(#paint1_linear_23_156)"/>
<path d="M62.2942 53.2093C75.0667 53.2093 85.4209 42.7768 85.4209 29.9078C85.4209 17.0387 75.0667 6.60632 62.2942 6.60632C49.5217 6.60632 39.1675 17.0387 39.1675 29.9078C39.1675 42.7768 49.5217 53.2093 62.2942 53.2093Z" fill="white"/>
<path opacity="0.06" d="M91.9776 29.9078C91.9776 46.4288 78.6811 59.8259 62.2942 59.8259C51.966 59.8259 42.8678 54.5101 37.5512 46.4391C71.0264 43.6941 79.8501 15.1178 81.6596 7.23114C87.9724 12.7211 91.9776 20.8433 91.9776 29.9078Z" fill="#1A6FB5" fill-opacity="0.5"/>
<path d="M62.2946 29.959C64.9783 29.959 67.1537 27.7672 67.1537 25.0632C67.1537 22.3592 64.9783 20.1673 62.2946 20.1673C59.6109 20.1673 57.4354 22.3592 57.4354 25.0632C57.4354 27.7672 59.6007 29.959 62.2946 29.959ZM62.2946 32.407C59.0518 32.407 52.5763 34.0458 52.5763 37.3028V38.5319C52.5763 39.2079 53.1252 39.761 53.7962 39.761H70.8133C71.4842 39.761 72.0332 39.2079 72.0332 38.5319V37.3028C72.0128 34.056 65.5374 32.407 62.2946 32.407Z" fill="url(#paint2_linear_23_156)"/>
</g>
<defs>
<linearGradient id="paint0_linear_23_156" x1="5.67435" y1="84.3265" x2="53.924" y2="40.7922" gradientUnits="userSpaceOnUse">
<stop stop-color="#67C3F3"/>
<stop offset="1" stop-color="#5A98F2"/>
</linearGradient>
<linearGradient id="paint1_linear_23_156" x1="50.0169" y1="2.11336" x2="72.7814" y2="52.9053" gradientUnits="userSpaceOnUse">
<stop stop-color="#67C3F3"/>
<stop offset="1" stop-color="#5A98F2"/>
</linearGradient>
<linearGradient id="paint2_linear_23_156" x1="55.2686" y1="28.3947" x2="72.9196" y2="36.9391" gradientUnits="userSpaceOnUse">
<stop stop-color="#B0F4FF"/>
<stop offset="0.071077" stop-color="#A6F1FF"/>
<stop offset="0.2937" stop-color="#8BE8FD"/>
<stop offset="0.5209" stop-color="#78E1FD"/>
<stop offset="0.7536" stop-color="#6DDDFC"/>
<stop offset="1" stop-color="#69DCFC"/>
</linearGradient>
<clipPath id="clip0_23_156">
<rect width="91.978" height="90" fill="white"/>
</clipPath>
</defs>
</svg>
