<svg width="40" height="40" viewBox="0 0 40 40" fill="none" xmlns="http://www.w3.org/2000/svg">
<rect width="40" height="40" rx="20" fill="#F5F5F5"/>
<path d="M20 12.2083C15.6968 12.2083 12.2083 15.6968 12.2083 20C12.2083 24.3032 15.6968 27.7917 20 27.7917C24.0495 27.7917 27.377 24.7028 27.7558 20.7523C27.7734 20.5685 27.679 20.392 27.5162 20.3047C27.3534 20.2174 27.1542 20.2363 27.0107 20.3527C26.2227 20.9921 25.2192 21.375 24.125 21.375C21.5937 21.375 19.5417 19.323 19.5417 16.7917C19.5417 15.2882 20.2651 13.9539 21.3847 13.1174C21.5327 13.0068 21.5999 12.8181 21.555 12.6388C21.5101 12.4596 21.3619 12.3248 21.1792 12.297C20.7944 12.2386 20.4006 12.2083 20 12.2083Z" fill="#555555"/>
</svg>
